. 
 
http://www.torrenting.com          :     Once & For all ;)


               www . Torrenting . Com 

(((((((((((((= Enjoy No RAR releases =))))))))))))))))))))


...................................NFO:....................................

.The Thing 2011 TS XviD READNFO - MiSTERE
 
http://www.imdb.com/title/tt0905372/

Video
ID                               : 0
Format                           : MPEG-4 Visual
Format profile                   : Advanced Simple@L5
Format settings, BVOP            : 2
Format settings, QPel            : No
Format settings, GMC             : No warppoints
Format settings, Matrix          : Default (H.263)
Muxing mode                      : Packed bitstream
Codec ID                         : XVID
Codec ID/Hint                    : XviD
Duration                         : 1h 25mn
Bit rate                         : 2 090 Kbps
Width                            : 720 pixels
Height                           : 304 pixels
Display aspect ratio             : 2.35:1
Frame rate                       : 29.970 fps
Color space                      : YUV
Chroma subsampling               : 4:2:0
Bit depth                        : 8 bits
Scan type                        : Progressive
Compression mode                 : Lossy
Bits/(Pixel*Frame)               : 0.319
Stream size                      : 1.25 GiB (94%)
Writing library                  : XviD 64

Audio
ID                               : 1
Format                           : MPEG Audio
Format version                   : Version 1
Format profile                   : Layer 3
Mode                             : Joint stereo
Mode extension                   : MS Stereo
Codec ID                         : 55
Codec ID/Hint                    : MP3
Duration                         : 1h 25mn
Bit rate mode                    : Constant
Bit rate                         : 128 Kbps
Channel(s)                       : 2 channels
Sampling rate                    : 44.1 KHz
Compression mode                 : Lossy
Stream size                      : 78.4 MiB (6%)
Alignment                        : Split accross interleaves
Interleave, duration             : 33 ms (1.00 video frame)


Source was slanted and had alot of movement throughout
as well as subs in an unknown asian language
cut video into 24 pieces and cropped rotated and 
resized each then sharpened and tweaked RGB
Due to the movement being severe at times and fine at others
the AR will switch as some areas were overcropped to cut out 
as much camera shake as possible but a few minutes was removed 
from the middle due to losing all picture
Audio is LiNE hence the TS title so take it or leave it 

[img]http://i.imgur.com/uxydx.png[/img]
[img]http://i.imgur.com/RIBMm.png[/img]
[img]http://i.imgur.com/YDbOH.png[/img]
[img]http://i.imgur.com/vDMp9.png[/img]
[img]http://i.imgur.com/zs3qz.png[/img]
[img]http://i.imgur.com/roD7d.png[/img]
[img]http://i.imgur.com/yeXt2.png[/img]